<?xml version="1.0" standalone="no"?>
<!DOCTYPE svg PUBLIC "-//W3C//DTD SVG 20010904//EN"
 "http://www.w3.org/TR/2001/REC-SVG-20010904/DTD/svg10.dtd">
<svg version="1.0" xmlns="http://www.w3.org/2000/svg"
 width="267.000000pt" height="158.000000pt" viewBox="0 0 267.000000 158.000000"
 preserveAspectRatio="xMidYMid meet">

<g transform="translate(0.000000,158.000000) scale(0.100000,-0.100000)"
fill="#000000" stroke="none">
<path d="M1860 1517 l-64 -52 32 -3 32 -3 -32 -47 c-51 -75 -199 -224 -216
-217 -8 3 -45 -5 -83 -17 -69 -22 -69 -22 -69 -59 0 -32 -12 -49 -36 -49 -2 0
-4 81 -4 180 0 138 -3 180 -12 179 -7 0 -42 -15 -78 -32 l-65 -33 -3 -174 c-2
-174 -6 -189 -39 -190 -10 0 -13 35 -13 140 0 117 -2 140 -15 140 -8 0 -44
-14 -80 -32 l-64 -32 -3 -121 -3 -120 -100 0 c-55 0 -140 3 -190 6 -85 6 -87
6 -47 -7 171 -53 444 -58 605 -10 158 47 283 123 393 238 53 54 150 189 168
231 3 8 11 5 25 -11 l20 -23 6 48 c3 26 8 65 10 86 3 20 2 37 -2 37 -5 -1 -37
-24 -73 -53z"/>
<path d="M1533 1025 l-72 -40 -3 -130 c-2 -108 -6 -130 -18 -130 -12 0 -15 21
-18 121 l-3 122 -67 -20 c-37 -12 -73 -22 -79 -24 -9 -2 -13 -32 -13 -104 0
-99 0 -101 -22 -98 -22 3 -23 8 -26 96 l-3 92 -79 0 -80 0 0 -39 c0 -22 -4
-42 -9 -45 -5 -4 -25 12 -44 34 -18 22 -37 40 -41 40 -4 0 -34 -21 -67 -46
-70 -53 -70 -53 25 -142 114 -106 258 -162 419 -162 144 0 269 43 385 132 52
40 112 108 112 124 -1 8 -71 65 -108 88 -10 6 -25 -3 -51 -28 -20 -20 -42 -36
-49 -36 -8 0 -12 36 -14 118 l-3 117 -72 -40z"/>
<path d="M435 338 c-58 -20 -105 -83 -105 -140 0 -47 39 -106 86 -129 109 -52
228 16 228 131 0 62 -23 96 -84 128 -48 24 -78 26 -125 10z m116 -77 c60 -60
22 -150 -64 -151 -82 0 -117 91 -58 151 20 20 39 29 61 29 22 0 41 -9 61 -29z"/>
<path d="M1066 340 c-45 -14 -66 -39 -66 -80 0 -47 21 -66 97 -89 66 -19 81
-43 38 -63 -21 -9 -36 -8 -76 4 -48 16 -50 16 -60 -5 -15 -27 7 -44 67 -53 84
-12 146 15 160 72 11 42 -23 75 -95 97 -101 29 -94 72 11 63 50 -3 58 -2 64
16 7 25 4 28 -43 39 -45 10 -59 10 -97 -1z"/>
<path d="M50 202 c0 -76 2 -141 5 -144 3 -2 18 -3 35 0 26 4 30 8 30 37 0 28
24 65 42 65 3 0 23 -22 43 -49 32 -42 44 -50 76 -53 22 -2 39 -2 39 1 0 2 -27
39 -59 81 l-60 77 55 54 c30 29 54 57 54 61 0 4 -15 8 -34 8 -30 0 -43 -9 -95
-67 l-61 -68 0 68 0 67 -35 0 -35 0 0 -138z"/>
<path d="M690 200 l0 -140 30 0 30 0 0 80 c0 44 3 80 8 79 4 0 37 -38 74 -83
58 -72 70 -83 92 -79 l26 5 0 139 0 139 -30 0 -30 0 0 -80 c0 -44 -4 -80 -8
-80 -5 0 -37 36 -73 80 -52 65 -69 80 -91 80 l-28 0 0 -140z"/>
<path d="M1230 315 c0 -23 4 -25 45 -25 l45 0 0 -113 c0 -63 2 -116 5 -119 3
-2 18 -3 35 0 l30 4 0 114 0 114 45 0 c41 0 45 2 45 25 l0 25 -125 0 -125 0 0
-25z"/>
<path d="M1510 201 l0 -139 30 -4 c38 -6 40 -3 40 44 0 34 3 38 24 38 16 0 36
-14 59 -42 26 -31 42 -41 66 -42 17 -1 31 0 31 2 0 2 -14 23 -31 48 -25 37
-28 45 -14 50 21 8 45 56 45 90 0 16 -12 38 -34 60 -34 34 -35 34 -125 34
l-91 0 0 -139z m164 73 c19 -18 21 -55 4 -72 -7 -7 -31 -12 -55 -12 l-43 0 0
50 0 50 39 0 c23 0 46 -7 55 -16z"/>
<path d="M1800 244 c0 -113 15 -155 65 -178 69 -33 157 -8 181 50 9 21 14 70
14 129 l0 95 -34 0 -34 0 0 -95 c-1 -113 -10 -135 -57 -135 -56 0 -65 18 -65
131 l0 99 -35 0 -35 0 0 -96z"/>
<path d="M2120 201 l0 -139 30 -4 c29 -4 30 -3 30 32 0 25 7 43 21 56 21 19
21 19 69 -36 41 -46 53 -54 77 -52 15 2 30 5 31 7 2 2 -22 35 -53 74 l-57 70
20 28 c11 15 36 44 56 62 33 32 36 33 36 13 0 -19 5 -22 45 -22 l44 0 3 -117
3 -117 30 0 30 0 3 117 3 117 44 0 c41 0 45 2 45 25 l0 25 -160 0 -160 0 -65
-67 -64 -68 -1 68 0 67 -30 0 -30 0 0 -139z"/>
</g>
</svg>
